<svg width="1093" height="416" viewBox="0 0 1093 416" fill="none" xmlns="http://www.w3.org/2000/svg">
<path d="M315.995 332.291C315.995 359.75 315.995 386.71 315.995 414.08C302.416 414.08 289.194 414.08 275.557 414.08C275.557 326.783 275.557 239.448 275.557 151.704C288.888 151.704 302.097 151.704 315.914 151.704C315.914 158.456 315.914 165.003 315.914 170.755C323.792 165.321 331.071 158.804 339.526 154.726C376.102 137.088 420.889 151.389 443.309 185.961C463.286 216.767 463.107 267.193 437.141 299.508C413.147 329.369 364.797 338.773 333.155 318.701C327.2 314.923 322.057 309.864 315.995 304.955C315.995 314.01 315.995 322.9 315.995 332.291ZM359.991 291.367C371.938 292.299 383.278 290.481 393.417 283.679C411.415 271.603 419.575 249.275 414.835 225.351C410.71 204.526 395.322 189.14 374.997 185.519C354.224 181.819 333.955 190.276 323.462 207.413C307.754 233.066 312.01 283.899 359.991 291.367Z" fill="#FB6203"/>
<path d="M681.506 304.634C662.365 328.371 630.313 334.345 602.521 325.655C567.139 314.593 544.957 285.782 542.341 247.86C539.918 212.732 551.038 183.043 580.094 161.866C608.165 141.408 648.763 142.376 673.767 163.156C677.066 165.897 680.514 168.46 683.122 170.502C683.122 165.679 683.122 158.981 683.122 151.804C696.3 151.804 709.015 151.804 722.166 151.804C722.166 209.079 722.166 266.453 722.166 324.177C709.427 324.177 696.708 324.177 683.363 324.177C683.363 318.375 683.438 312.76 683.29 307.151C683.265 306.206 682.282 305.287 681.506 304.634ZM674.971 270.592C681.725 260.019 684.719 248.352 684.246 235.932C682.411 187.729 637.532 176.159 610.606 190.515C579.894 206.888 577.054 247.608 593.086 271.498C611.034 298.242 656.028 298.717 674.971 270.592Z" fill="#FB6203"/>
<path d="M852.796 325.119C845.631 342.032 838.426 358.517 831.631 375.169C821.014 401.188 800.945 413.079 773.746 414.339C765.31 414.729 756.84 414.4 747.731 414.4C750.187 400.874 752.521 388.018 754.992 374.408C759.439 374.408 763.709 374.376 767.978 374.414C782.197 374.542 792.113 368.397 797.326 354.858C800.794 345.851 804.896 337.087 808.276 328.05C809.143 325.731 809.168 322.442 808.201 320.19C789.562 276.748 770.725 233.39 751.907 190.024C746.43 177.402 740.883 164.811 734.977 151.312C742.38 151.312 749.123 151.301 755.866 151.315C762.196 151.327 768.531 151.519 774.855 151.332C778.249 151.232 780.025 152.125 781.455 155.599C797.549 194.7 813.884 233.701 830.16 272.727C830.471 273.473 830.848 274.191 831.645 275.873C836.993 262.652 842.07 250.28 847.009 237.854C857.957 210.312 868.796 182.727 879.845 155.226C880.484 153.638 882.583 151.568 884.036 151.541C897.691 151.288 911.353 151.426 925.013 151.481C925.441 151.483 925.867 151.802 926.624 152.105C902.027 209.741 877.484 267.254 852.796 325.119Z" fill="#FB6203"/>
<path d="M82.8589 207.679C82.859 188.755 82.859 170.294 82.859 151.613C96.8817 151.613 110.45 151.613 124.498 151.613C124.498 158.837 124.498 165.785 124.498 173.479C125.638 172.737 126.214 172.536 126.532 172.131C144.021 149.875 167.482 143.732 193.99 148.89C224.852 154.896 244.717 178.805 245.387 210.904C246.155 247.705 245.573 284.534 245.564 321.351C245.563 322.166 245.401 322.98 245.276 324.15C231.437 324.15 217.73 324.15 203.409 324.15C203.409 322.047 203.409 320.095 203.408 318.143C203.395 287.323 203.389 256.503 203.351 225.683C203.348 223.022 203.269 220.347 202.987 217.703C200.495 194.366 182.939 181.344 159.763 185.59C139.851 189.238 125.837 205.256 125.262 226.976C124.469 256.943 124.676 286.937 124.459 316.919C124.442 319.231 124.457 321.543 124.457 324.181C110.455 324.181 96.8965 324.181 82.8589 324.181C82.8589 285.36 82.8589 246.751 82.8589 207.679Z" fill="#FB6103"/>
<path d="M950.633 174.787C972.393 136.014 993.955 97.5502 1015.77 58.6353C1004.01 51.9616 992.483 45.4244 979.802 38.2307C1013.04 25.3343 1045.33 12.8022 1078.32 0C1082.91 35.0523 1087.42 69.559 1092.1 105.334C1079.23 97.8929 1067.5 91.1141 1055.35 84.0941C1048.13 96.6897 1041.13 108.966 1034.07 121.205C1020.01 145.577 1005.9 169.924 991.828 194.292C986.789 203.018 979.803 209.793 971.102 214.757C954.412 224.279 936.192 230.023 918.266 236.479C917.868 236.136 917.471 235.793 917.074 235.45C928.194 215.332 939.315 195.214 950.633 174.787Z" fill="#FB6203"/>
<path d="M521.755 83.2909C521.753 163.747 521.753 243.703 521.753 324.084C507.639 324.084 493.758 324.084 479.49 324.084C479.49 232.191 479.49 140.309 479.49 48.0986C493.368 48.0986 507.244 48.0986 521.757 48.0986C521.757 59.8904 521.757 71.3406 521.755 83.2909Z" fill="#FA6103"/>
<path d="M46.9594 256.291C46.9593 279.092 46.9593 301.393 46.9593 324.113C32.8555 324.113 19.1743 324.113 5.19431 324.113C5.19431 266.64 5.19431 209.392 5.19431 151.735C18.9546 151.735 32.6466 151.735 46.9594 151.735C46.9594 186.59 46.9594 221.19 46.9594 256.291Z" fill="#FB6203"/>
<path d="M36.3545 112.692C24.5429 116.464 14.4361 114.173 6.62053 105.05C-0.910769 96.2586 -1.88789 85.9998 3.03389 75.6488C7.82828 65.5658 16.3356 60.59 27.49 60.6341C39.9903 60.6834 50.5465 69.7458 53.1625 82.3147C55.7711 94.8482 49.3726 106.619 36.3545 112.692Z" fill="#FA6103"/>
<path d="M582.158 386.65C584.684 390.146 588.846 392.942 589.969 396.657C592.732 405.796 585.999 413.773 575.602 414.292C566.998 414.721 558.354 414.38 549.326 414.38C549.326 397.126 549.326 380.102 549.326 361.811C559.275 362.292 569.329 362.293 579.244 363.468C584.026 364.035 587.345 367.937 588.049 373.145C588.79 378.627 587.787 383.452 582.158 386.65ZM559.095 394.109C559.095 398.008 559.095 401.907 559.095 406.214C564.229 406.214 568.749 406.711 573.078 406.019C575.49 405.633 578.505 403.732 579.551 401.658C580.493 399.791 579.834 396.32 578.616 394.331C576.271 390.5 562.966 390.03 559.095 394.109ZM575.703 382.513C576.419 379.842 578.271 376.771 577.514 374.618C576.824 372.66 573.44 370.923 570.991 370.479C567.22 369.796 563.233 370.299 559.42 370.299C559.42 375.229 559.42 379.427 559.42 384.496C564.925 383.935 569.957 383.423 575.703 382.513Z" fill="#F16005"/>
<path d="M354.02 364.127C362.972 360.37 371.562 360.136 379.836 364.735C383.104 366.551 385.939 369.148 388.97 371.389C388.512 372.112 388.054 372.836 387.595 373.559C385.073 375.024 382.551 376.488 380.072 377.928C372.69 369.971 367.761 368.353 360.425 371.343C352.516 374.567 348.602 385.235 351.616 395.356C354.004 403.377 361.327 407.758 369.898 406.293C377.337 405.022 379.294 402.445 378.55 394.071C376.697 394.071 374.769 394.071 372.841 394.071C370.894 394.071 368.946 394.071 366.715 394.071C366.715 391.17 366.715 388.908 366.715 386.152C373.948 386.152 381.122 386.152 388.786 386.152C388.786 392.518 388.947 398.642 388.66 404.744C388.597 406.086 387.162 407.609 385.988 408.615C373.968 418.91 354.469 417.396 345.824 405.577C335.299 391.19 340.543 370.794 354.02 364.127Z" fill="#EE6006"/>
<path d="M475.968 370.193C485.19 358.812 504.168 359.383 513.472 366.908C523.62 375.114 526.18 391.732 518.891 403.752C513.309 412.955 501.335 417.303 489.468 414.438C478.408 411.767 470.786 402.478 469.997 390.664C469.503 383.255 471.247 376.469 475.968 370.193ZM512.64 392.063C512.732 390.081 513.072 388.075 512.877 386.122C511.534 372.676 498.184 365.577 487.467 372.727C480.698 377.244 479.334 384.232 480.421 391.699C481.745 400.787 487.631 406.123 495.94 406.409C504.346 406.698 510.111 401.958 512.64 392.063Z" fill="#F16005"/>
<path d="M630.655 365.728C632.375 359.991 636.851 362.521 640.041 362.376C641.442 362.312 643.668 364.302 644.297 365.854C650.16 380.329 655.764 394.91 661.422 409.468C661.95 410.827 662.332 412.243 662.782 413.636C654.307 415.772 653.283 415.458 650.593 407.823C649.185 403.825 647.26 401.638 642.782 402.335C640.996 402.613 639.106 402.601 637.308 402.37C629.603 401.378 623.838 402.895 622.389 411.965C621.908 414.973 618.937 415.259 611.563 413.717C617.895 397.78 624.195 381.924 630.655 365.728ZM642.729 387.143C641.034 382.684 639.339 378.224 637.276 372.796C635.623 377.196 634.375 380.41 633.21 383.654C632.005 387.01 630.881 390.395 629.577 394.191C635.064 394.191 639.816 394.191 645.226 394.191C644.399 391.828 643.706 389.85 642.729 387.143Z" fill="#F16005"/>
<path d="M416.813 407.073C416.822 391.99 416.822 377.378 416.822 362.514C420.412 362.514 423.346 362.514 426.914 362.514C426.914 376.942 426.914 391.157 426.914 405.88C435.11 405.88 442.685 405.88 450.518 405.88C450.518 408.821 450.518 411.24 450.518 414.068C439.362 414.068 428.344 414.068 416.805 414.068C416.805 411.783 416.805 409.664 416.813 407.073Z" fill="#F16005"/>
<path d="M696.448 392.721C696.442 397.288 696.442 401.396 696.442 405.843C704.94 405.843 712.724 405.843 720.842 405.843C720.842 408.742 720.842 411.291 720.842 414.185C709.649 414.185 698.571 414.185 687.093 414.185C687.093 396.927 687.093 379.88 687.093 362.544C690.102 362.544 692.87 362.544 696.454 362.544C696.454 372.414 696.454 382.337 696.448 392.721Z" fill="#F66107"/>
</svg>
